# xmcd
#
# Track frame offsets:
#	150
#	14940
#	31808
#	53503
#	73183
#	90630
#	107012
#	123003
#	138531
#	151576
#	172206
#	189006
#	200890
#	219699
#	234364
#	253099
#	270724
#	284981
#	300056
#	319536
#	336856
#
# Disc length: 4793 seconds
#
# Revision: 1
# Processed by: cddbd v1.5.1PL0 Copyright (c) Steve Scherf et al.
# Submitted via: EasyCDDAExtractor 6.5.7.1
#
DISCID=3012b715
DTITLE=Various Artist - Dovarmir
DYEAR=1900
DGENRE=Gaúchas
TTITLE0=Osvaldir e Carlos Magrão - Loira Gelada, Monera Quente
TTITLE1=Osvaldir e Carlos Magrão - Desassossegos
TTITLE2=Osvaldir e Carlos Magrão - Filho de Caminhoneiro
TTITLE3=Osvaldir e Carlos Magrão - Mocinho e Bandido
TTITLE4=Osvaldir e Carlos Magrão - Sonhei Contigo
TTITLE5=Osvaldir e Carlos Magrão - Cantiga de Rio e Remo
TTITLE6=Osvaldir e Carlos Magrão - India Guarani
TTITLE7=Osvaldir e Carlos Magrão - Vem cá menina
TTITLE8=Osvaldir e Carlos Magrão - Aonde você for eu vou também
TTITLE9=Osvaldir e Carlos Magrão - Guri
TTITLE10=Osvaldir e Carlos Magrão - Como vai você
TTITLE11=Osvaldir e Carlos Magrão - Moreninha linda
TTITLE12=Osvaldir e Carlos Magrão - Metamorfose
TTITLE13=Osvaldir e Carlos Magrão - Eu tenho uma camiseta escrito eu te amo
TTITLE14=Osvaldir e Carlos Magrão - Prece
TTITLE15=Osvaldir e Carlos Magrão - Rio e Canoa
TTITLE16=Osvaldir e Carlos Magrão - Herdeiro da Pampa Pobre
TTITLE17=Nenito Sarturi - Um Apito
TTITLE18=Os Araganos - Céu, Sol, Sul, Terra e Cor
TTITLE19=Vitor Hugo - Desgarados
TTITLE20=Wilson Paim - Última Carreta
EXTD=
EXTT0=
EXTT1=
EXTT2=
EXTT3=
EXTT4=
EXTT5=
EXTT6=
EXTT7=
EXTT8=
EXTT9=
EXTT10=
EXTT11=
EXTT12=
EXTT13=
EXTT14=
EXTT15=
EXTT16=
EXTT17=
EXTT18=
EXTT19=
EXTT20=
PLAYORDER=
